<svg width="23" height="24" viewBox="0 0 23 24" fill="none" xmlns="http://www.w3.org/2000/svg">
<path d="M3.98062 1.22562C3.2288 1.518 2.593 1.90783 1.95721 2.54363C1.32141 3.17479 0.931574 3.81523 0.639199 4.56241C0.356106 5.28638 0.165831 6.1171 0.11014 7.33301C0.0544499 8.54891 0.0405273 8.93874 0.0405273 12.0388C0.0405273 15.1389 0.0544499 15.5288 0.11014 16.7447C0.165831 17.9606 0.360747 18.7913 0.639199 19.5153C0.931574 20.2671 1.32141 20.9029 1.95721 21.5387C2.593 22.1745 3.2288 22.5643 3.98062 22.8567C4.7046 23.1398 5.53531 23.3301 6.75122 23.3858C7.96713 23.4415 8.35696 23.4554 11.4571 23.4554C14.5572 23.4554 14.947 23.4415 16.1629 23.3858C17.3788 23.3301 18.2095 23.1352 18.9335 22.8567C19.6853 22.5643 20.3211 22.1745 20.9569 21.5387C21.5927 20.9029 21.9825 20.2671 22.2749 19.5153C22.558 18.7913 22.7483 17.9606 22.804 16.7447C22.8597 15.5288 22.8736 15.1389 22.8736 12.0388C22.8736 8.93874 22.8597 8.54891 22.804 7.33301C22.7483 6.1171 22.5534 5.28638 22.2749 4.56241C21.9825 3.81523 21.5927 3.17479 20.9616 2.54363C20.3258 1.90783 19.69 1.518 18.9381 1.22562C18.2142 0.942532 17.3834 0.752257 16.1675 0.696566C14.9516 0.640876 14.5618 0.626953 11.4617 0.626953C8.3616 0.626953 7.97177 0.640876 6.75586 0.696566C5.53531 0.747616 4.7046 0.942532 3.98062 1.22562ZM16.0701 2.74783C17.1839 2.79888 17.7872 2.98451 18.191 3.1423C18.7247 3.35114 19.1052 3.59711 19.5043 3.99622C19.9034 4.39534 20.1494 4.77589 20.3582 5.30959C20.516 5.71334 20.7017 6.31666 20.7527 7.43046C20.8084 8.63245 20.8177 8.99443 20.8177 12.0435C20.8177 15.0925 20.8038 15.4545 20.7527 16.6565C20.7017 17.7703 20.516 18.3736 20.3582 18.7774C20.1494 19.3111 19.9034 19.6916 19.5043 20.0907C19.1052 20.4899 18.7247 20.7358 18.191 20.9447C17.7872 21.1025 17.1839 21.2881 16.0701 21.3391C14.8681 21.3948 14.5061 21.4041 11.4571 21.4041C8.40801 21.4041 8.04602 21.3902 6.84404 21.3391C5.73023 21.2881 5.12692 21.1025 4.72316 20.9447C4.18946 20.7358 3.80891 20.4899 3.4098 20.0907C3.01068 19.6916 2.76472 19.3111 2.55588 18.7774C2.39809 18.3736 2.21245 17.7703 2.1614 16.6565C2.10571 15.4545 2.09643 15.0925 2.09643 12.0435C2.09643 8.99443 2.11035 8.63245 2.1614 7.43046C2.21245 6.31666 2.39809 5.71334 2.55588 5.30959C2.76472 4.77589 3.01068 4.39534 3.4098 3.99622C3.80891 3.59711 4.18946 3.35114 4.72316 3.1423C5.12692 2.98451 5.73023 2.79888 6.84404 2.74783C8.04602 2.69214 8.40801 2.68286 11.4571 2.68286C14.5061 2.68286 14.8681 2.69214 16.0701 2.74783Z" fill="#06C8FD"/>
<path d="M5.5957 12.0435C5.5957 15.2829 8.22243 17.905 11.4571 17.905C14.6918 17.905 17.3185 15.2782 17.3185 12.0435C17.3185 8.80886 14.6964 6.18213 11.4571 6.18213C8.21779 6.18213 5.5957 8.80422 5.5957 12.0435ZM15.2626 12.0435C15.2626 14.1459 13.5594 15.8491 11.4571 15.8491C9.3548 15.8491 7.65161 14.1459 7.65161 12.0435C7.65161 9.94123 9.3548 8.23803 11.4571 8.23803C13.5594 8.23803 15.2626 9.94123 15.2626 12.0435Z" fill="#06C8FD"/>
<path d="M17.5551 7.31917C18.3112 7.31917 18.9241 6.70622 18.9241 5.95011C18.9241 5.194 18.3112 4.58105 17.5551 4.58105C16.799 4.58105 16.186 5.194 16.186 5.95011C16.186 6.70622 16.799 7.31917 17.5551 7.31917Z" fill="#06C8FD"/>
</svg>
