<svg width="21" height="21" viewBox="0 0 21 21" fill="none" xmlns="http://www.w3.org/2000/svg">
<path d="M0.0498047 21L1.52593 15.6074C0.615055 14.0289 0.13643 12.2395 0.137305 10.4046C0.13993 4.66812 4.80805 0 10.5437 0C13.3271 0.000875 15.9398 1.085 17.9051 3.052C19.8694 5.019 20.9509 7.6335 20.9501 10.4143C20.9474 16.1516 16.2793 20.8197 10.5437 20.8197C8.80243 20.8189 7.08655 20.3822 5.56668 19.5527L0.0498047 21ZM5.82218 17.6689C7.28868 18.5395 8.68868 19.061 10.5402 19.0619C15.3072 19.0619 19.1904 15.1821 19.1931 10.4125C19.1948 5.63325 15.3299 1.75875 10.5472 1.757C5.77668 1.757 1.89605 5.63675 1.8943 10.4055C1.89343 12.3524 2.46393 13.8101 3.42205 15.3352L2.54793 18.5273L5.82218 17.6689ZM15.7858 12.8879C15.7211 12.7794 15.5478 12.7146 15.2871 12.5842C15.0272 12.4539 13.7488 11.8247 13.5099 11.7381C13.2719 11.6515 13.0987 11.6077 12.9246 11.8685C12.7513 12.1284 12.2526 12.7146 12.1012 12.8879C11.9498 13.0611 11.7976 13.083 11.5377 12.9526C11.2778 12.8223 10.4396 12.5484 9.44643 11.662C8.6738 10.9725 8.15143 10.1211 8.00005 9.86038C7.84868 9.6005 7.9843 9.45963 8.1138 9.33012C8.23105 9.21375 8.37368 9.0265 8.50405 8.87425C8.63618 8.72375 8.67905 8.61525 8.76655 8.44112C8.85318 8.26788 8.8103 8.11563 8.74468 7.98525C8.67906 7.85575 8.1593 6.57562 7.94318 6.055C7.73143 5.54838 7.51706 5.61662 7.3578 5.60875L6.85905 5.6C6.6858 5.6 6.40405 5.66475 6.16605 5.9255C5.92805 6.18625 5.25605 6.8145 5.25605 8.09463C5.25605 9.37475 6.18793 10.6111 6.31743 10.7844C6.4478 10.9576 8.15055 13.5844 10.7589 14.7105C11.3793 14.9783 11.8641 15.1384 12.2412 15.2582C12.8642 15.456 13.4312 15.428 13.8792 15.3615C14.3788 15.2871 15.4174 14.7324 15.6344 14.1251C15.8514 13.517 15.8514 12.9964 15.7858 12.8879Z" fill="#06C8FD"/>
</svg>
