<svg width="28" height="17" viewBox="0 0 28 17" fill="none" xmlns="http://www.w3.org/2000/svg">
<path d="M27.3 1.47204C27.4874 0.847619 27.3 0.388672 26.4086 0.388672H23.4613C22.7118 0.388672 22.3665 0.785093 22.1792 1.22236C22.1792 1.22236 20.6802 4.87562 18.5568 7.24867C17.8699 7.93562 17.5577 8.15393 17.1829 8.15393C16.9956 8.15393 16.7244 7.93562 16.7244 7.3112V1.47204C16.7244 0.722566 16.5069 0.388672 15.8823 0.388672H11.2507C10.7825 0.388672 10.5008 0.736462 10.5008 1.06615C10.5008 1.77667 11.5623 1.94046 11.6718 3.93878V8.2792C11.6718 9.23078 11.5 9.40341 11.1253 9.40341C10.1261 9.40341 7.69579 5.73351 6.2541 1.53457C5.97158 0.718356 5.68821 0.388672 4.93495 0.388672H1.98758C1.14547 0.388672 0.977051 0.785093 0.977051 1.22236C0.977051 2.00299 1.97642 5.87499 5.62968 10.9958C8.06547 14.4927 11.4966 16.3887 14.6192 16.3887C16.4928 16.3887 16.7244 15.9676 16.7244 15.2424V12.5992C16.7244 11.7571 16.9019 11.5891 17.4949 11.5891C17.9324 11.5891 18.6817 11.8076 20.4305 13.4937C22.4288 15.4918 22.7581 16.3887 23.8823 16.3887H26.8297C27.6718 16.3887 28.0928 15.9676 27.8499 15.1367C27.5842 14.3085 26.6301 13.1072 25.364 11.6828C24.6771 10.8708 23.6465 9.99646 23.3345 9.55941C22.8973 8.9973 23.0221 8.74762 23.3345 8.24825C23.3345 8.24825 26.9253 3.18972 27.3 1.47225V1.47204Z" fill="#06C8FD"/>
</svg>
